<svg xmlns="http://www.w3.org/2000/svg" viewBox="0 0 100.71 112.82"><defs><style>.cls-1{fill:#86c3d0;}.cls-2{fill:#fff;}.cls-3{font-size:12px;fill:#1d1d1b;font-family:MyriadPro-Regular, Myriad Pro;}.cls-4{letter-spacing:-0.04em;}.cls-5{letter-spacing:-0.01em;}.cls-6{letter-spacing:-0.01em;}.cls-7{letter-spacing:0em;}.cls-8{letter-spacing:0em;}.cls-9{letter-spacing:-0.02em;}.cls-10{letter-spacing:-0.01em;}.cls-11{letter-spacing:0.01em;}</style></defs><g id="API"><path class="cls-1" d="M50.35,13.37a43,43,0,1,0,43.05,43A43,43,0,0,0,50.35,13.37Z"/><path class="cls-2" d="M50.36,79.14a.87.87,0,0,1-.47-1.61,42.55,42.55,0,0,0,6.82-5.31.88.88,0,0,1,1.21,1.27A44.86,44.86,0,0,1,50.82,79,.89.89,0,0,1,50.36,79.14Z"/><path class="cls-2" d="M50.35,79.14a.87.87,0,0,1-.46-.13A42,42,0,0,1,29.77,43.37v-.64a.87.87,0,0,1,.87-.87,7.51,7.51,0,0,0,7.68-7.31.88.88,0,0,1,.87-.88H61.52a.88.88,0,0,1,.87.88,7.51,7.51,0,0,0,7.68,7.31.87.87,0,0,1,.87.87v.64a41,41,0,0,1-.87,8.41.87.87,0,0,1-1,.67.88.88,0,0,1-.68-1,38.42,38.42,0,0,0,.84-7.85,9.26,9.26,0,0,1-8.5-8.15H40a9.26,9.26,0,0,1-8.5,8.15,40.3,40.3,0,0,0,19.3,34,.87.87,0,0,1,.28,1.2A.88.88,0,0,1,50.35,79.14Z"/><path class="cls-2" d="M57.31,73.73a.86.86,0,0,1-.63-.27.88.88,0,0,1,0-1.24,40.14,40.14,0,0,0,11.64-20.8.88.88,0,0,1,1.72.36A42,42,0,0,1,57.92,73.49.89.89,0,0,1,57.31,73.73Z"/><path class="cls-2" d="M50.39,63.3h-.07a7,7,0,0,1-7-7V52.77a.87.87,0,0,1,.87-.87H56.47a.87.87,0,0,1,.87.87v3.57A7,7,0,0,1,50.39,63.3Zm-5.27-9.65v2.69a5.21,5.21,0,0,0,5.2,5.21h.07a5.21,5.21,0,0,0,5.2-5.21V53.65Z"/><path class="cls-2" d="M55.35,53.65a.87.87,0,0,1-.87-.88V49.88a4.13,4.13,0,0,0-8.25,0v2.89a.88.88,0,1,1-1.75,0V49.88a5.88,5.88,0,0,1,11.75,0v2.89A.87.87,0,0,1,55.35,53.65Z"/></g><g id="HOSTING"><text class="cls-3" transform="translate(-12.07 -4.98)">JSON<tspan class="cls-4" x="26.52" y="0"> </tspan><tspan class="cls-5" x="28.57" y="0">T</tspan><tspan x="34.45" y="0">h</tspan><tspan class="cls-6" x="41.11" y="0">r</tspan><tspan class="cls-7" x="44.92" y="0">e</tspan><tspan class="cls-8" x="50.93" y="0">a</tspan><tspan class="cls-7" x="56.66" y="0">t </tspan><tspan class="cls-9" x="63.18" y="0">P</tspan><tspan class="cls-6" x="69.37" y="0">r</tspan><tspan class="cls-7" x="73.18" y="0">o</tspan><tspan class="cls-10" x="79.76" y="0">t</tspan><tspan x="83.66" y="0">e</tspan><tspan class="cls-11" x="89.68" y="0">c</tspan><tspan class="cls-7" x="95.21" y="0">tion</tspan></text></g></svg>